<mxfile host="65bd71144e">
    <diagram id="EXz08LAXHEQ8VW7fTx1x" name="Page-1">
        <mxGraphModel dx="2152" dy="433" grid="0" gridSize="10" guides="1" tooltips="1" connect="1" arrows="1" fold="1" page="0" pageScale="1" pageWidth="850" pageHeight="1100" background="#ffffff" math="0" shadow="0">
            <root>
                <mxCell id="0"/>
                <mxCell id="1" parent="0"/>
                <mxCell id="2" value="" style="shape=stencil(lVrbch0pDPwav1KAEIjnbPY/UhVn7VpvnHK8t79fsS7GQ3NOn+TNORnNAJJarRZ38uH7w6dv93c5fn99ef79/u/Hz68Pd/LLXc6PXx/uXx5f/a87+XgnH748v9z/9vL859fPb//+9mk8Of764/mv8YZ/3uy0hFqGVY7/vv2Sa2jx/19+fTN4evx6NojBbDXQIHrdoLTQ+mpQQk7EQEOrq4GESpZUJBRFg2jEIIXcVoM8v3nRQPpc8cmgZmJQg25LSo0YlGCCp9S4QS7oh078IBI6bLrNV1w1AE8b9cNYEuyhz29eM6hraEgKIsTAQ23dtOSgbA81pHUPvqvGvuBnEleDEjqJVrEga7SOb7Iv9FDXU/JvFmLg0Rph0zZT6rKBx+a6pBJDZgYllPUL/k226VKnmw4DT1GWcRbymg+e5cxxDjMQS44jLPg0bwY9NJIPjnw5LwbqmyZ+UPcrGBTqaW3BwMDPjaCGdvSDWlDiuBoxp8cvZNM1o+Oq0IyrG7ZWpX6oZW7xMGh8SZ5fa8a1OLP8soGGtIZ3y/OgrxnEFQSahsL3oLAkC5EZSMjrkiyGRhKoplDWgmJ+0KQCeSCAp63SKqpeDWBJFoxlnCfQekrdwZjndFxDozu2ki84Rsi6h67BWMkyjKXuIMAKimBR7D1EEt5e0WJHAyPHOpjFuqQUI42NZCEpfkKJq5NM3DoMjMZGR5jpdZK6y8EXFJ4vlMHJdNIpMBrJt4SEb0Qe8VqcleB4XmmkHud9PJ9pPYwhre9vncZpwve3SpM5I4tpQsP6AJ8T4HXq37hiRfWoJefpASTrghwBMw9RQCOvEyzinJsCBHvpYi6TrVB5ccwsk20rhc6HGRp5dV437YDG4EvdSasbnHMkVkYSopFTEmO102aen0hPIZtuRyd1GOTQSWRbwlR2pifkC140dPWDk0+WCz2Gui7JOThDVK8BUM6domcW3RWpoQd8IekzagA0Y5VWhb6B/IA0ZrARN8cExvR8DwB5nlJKIMMLH+R0Uo4BGRtKz3JWRawHWf2QEiUMDroFCAPlbR57AKuVQoCDKGYD3XFLk2cegUSrVK2Iejkkxtm2tsrzmxOquvKjSJtbRxPowhKFFwcwZBa0ipe0aRKhEKyQQ9d5P89O1uNpi5DNe/OtDHKSLQc8n57n64nb8+z9aRK50/rZ+7d440XTny94PpFpSAk7qaPxufY8YjtF6rF+g+crEy7SdP/78wyyBowneJ7B9FBm8P03nrfteRbPMknQaf2k3svWoxXK6kS2YhyM+VdQm9KZ0D/YqyhXCAXbLZ0If+08G+Yj40NywMcP52Pa8pHHm23rYfGQED+Vy5Vphu/pPPl6UPTi+qk/j/nFuo6xfoznyt9vuB4qbf7s87rjf2SiYESqmOYP12R7oGWRSoJeH4EPHH3aVUED3081mYTrj1Opvfz8pvxyvtQy6rgH4F1+vmFbX2h9sYx8jOvKTu2BeBvFB2f2BvwkUsLRCxJ1p6CMYTkrto3kVkajbaNMRjlZ71PMPxF1Nvk5iTWnXoClvX8Cyrz7gWnjo9sAXtZpm9gV9Q/h0yjvBRI0cfxcrU1h+zAwOnIYgso2EGDB5+QegrUIRcfap7B9GFQarkO5Xh1XjONLwTGicsLu3TwWNJkjgsuI2rEiqHLKlWdFOun7jDOOkgpyfaQkJ3VMuSoUVVPBqlx16iJXMgjLWuVTwYZTE2/shNUdpI2t0B1k3IDHIuNpeZ74WQ1kciyWnZEcZL95U/aVwqpgIpgFZVMlFAJ6okqaIU0eKj1TDxM6zAGKNYoeQhARvfEgtU2A5iHkZwo+GLI+WZIHHXCLziXo0YxuBomx/YbTw1HtGLpsud85Py0Vb2Z0obKvwxuA9ijxbGRaZnE9hR6bvOm2aeNgoR17auNwVBOKOBYnyF4rC5A+zrOMFR7ZpodK8ahufdoYN/Ilwb2JFqmaPsR2QHmj1XantpUP0mrcuKTQSuWOg2j1bzIV10MD/DAmljfoPMgnNy4eFZxP+i9MAdUtp29NBCIOx8ctBAIz41YDtIR2K6chlsbYgl1t2q7UlEIZ8YAZ4FWZX56KmNPjvgljPdtkxnkQa3ykXmCfDASczUIs+SvYgF8KDpaF3y4Z2gtcCyo0vHexcsijN9SL7WoTvTyVNlIf+T2iOOvN0WcYZ59xm2o0WlDk4PyHwY1j3SQeZ3NUExWcIYyLeEykKhNUTg0fVWHadict3SL1MPDKiUbryLjtC2wG5xkMRTEneudgNCYVT4lJqaWjlDFuH7KJdMYEGhNecqyO1Rk8zdU/3aY/I5b4bau23TOl/V5FPTvzojgMts4+spK1AZkbsFjSTQBxAzazcAOg0vm4SHrNAETqMQvlpxS3PbB2YB97ZQ7GqjgmHwbM0wVvKuVKc/rn7yzfNvA/3q9If3l8enq7YX3+f7xS7T+9XceWj/8B);lineShape=1;rounded=1;" parent="1" vertex="1">
                    <mxGeometry x="-307.9667698664483" y="60.52557494105571" width="130.55909575430985" height="254.68181121567858" as="geometry"/>
                </mxCell>
                <mxCell id="3" value="" style="shape=stencil(7VrZbhxHDPyafW30fTw7zn8YsBwJUSRDVq6/Dzub7pkuztRmgQBBgLzJa3KGzaNYZM8lfPj2+Onrw8Xbb+9vrz8+/Pr0+f3xEr67eP/08vjw9vQuf13Cx0v48OX17eGHt9efXz5f//31U5fsf/30+kt/wm9XvWhs60re/n79wWdT4p+/fH+Vf3562cl74/Iqn0xq5/LW5LTKR9OofGgoX4k91riK8n+98UTeKnsifb61KO8dlQ+rfDCtUvsTypdM/RNRPhUmnxrKR2p/sygf7Lm8M16d1xN/OpOqkg9MvnklT/zpD+wJJN/Eeyq+gTw/mQr2ZxNIvMrIrilfTCHxasbDeZtJJF5OArAeIDgTyQGc+G/NiCA+YBFIJsIbksksJeTM8IZiMvGRa8PiqdBM9iTIbvhkKERnMvFSD/P6hhgobG2oNhXEDSRuElZUKKNUjxXa8PpUaCOUx5kqcV2hIjnjmEJArEhhoNOxQsLiSclYEgeJq13dmjJFd4mrXdtHavQMElfA9+xMIPgucQ2gEEwmgZO41jVwOY93HivU8bypUE0lbpUwldWtxdHk614HhThif6xQTVpTo0gNksBlb+x6hmppW8hpFORUkD5Cajo3bLQ1U5OKMIu1pmsb2XWsEEejHArNUZOK5OZqUhMQICVa6gCVqZBMYGdopqxQ2YRNkTOI191aoq0ay0xq44hTQQqImaTAWBQKyaXu1ooKjRSQJHNYveTsZE3HuZFNtfdpOATLWxpSQyWqY5CiE/TNQSmQdBKkiV4pMDwuI9v2oSCeDX6g704hEZOkCVmVHZ61uYAALvnHvCStuhZUSIxulEEfp0KhhFjoRoAqzVxhEvJdlTIcEAXoKYIDbAbQDKgJTWaUqZi6xqEWCuBCaIAmVm8aIzQZgUMK3bNccqNHTQUZzcihQ0XEl6bB2lzMOBqmSKm9/DfMPtKL2WwlBvg1+UIedPmsCUEcpEJYTUuLKDCO2QELxwDusbc7Pj9IIsAbGp1npKcl8Co1qEUsn0DZjBQXcG9HeW4v97UWpIUxeyp2aUs5aFMMkeO8yIc7nw8wb2n/FPkaQZ7V2dY0NnlW+bs+timwBUZ/ARrEFiS9x6wEwFFOv7WYTd5xezwmEKvJ3mCUPLNfcAjtd6RDiTxAqRtc90zeJ/Bn4/Y7lC+8AJQ8G7e7PRhfNkf283qQd/y8ML7YUXGn8bqzIL2SJ6De8w3Pa1l8J2faFSR/fsOCZwB9WJCM4Wz0eJcQXL6qhGMBaKNP7wqAH/g++YKE3/MCkwYE25pxoGN5j4CVKYLK2OewQ1ZiT1U0QlowI4wy1uHOmEOWnnD8HLiPeUdAVhDmyHM2rUBXEipU2LRScK8ubKqSKEc1aWa+CA4BN/GFe6kvNhUlZYnRmcmKXH2nwIcPOHStFIv68AHDr6Ng6rKa6W6YpAijECpqUlUzXaa0eoO33QBFZ4mALFkUKl9dwgp561lncykErjchlktlLIx3CmxfGwM28c4jmYICva7AVmZ6P1BpH89q57wxk7MtB+6nKt1qb/W1n63JoUs0SSnQy4gjkyjyFbUyK/Q6SBQcbFESpVMl4Wa+RTqwFL128XwDZrG/SYdhV2y5IHrL0MaW1DnijqP3JAIz2WIcKl/lp4Kb+d7ESGqkMMplKiTqpWRxb178IMZnHQgOLdM2mxxjxE1k5k0xOiRW4mi642joVinaxnYcBdtuarSm+80XtN1CyaF00brGISUKAkFdeEoo6Z7GjoXxVHAUyIS7OHXxRPt0HnxwKvC26+OYQKZCpvXQGSeYxCOtr9mjp4tOp4BMCBFb5bs09m+TwtWxBTxWOOJ8dNBQO+0gOMKvhuFa1VOLCnZpSRXGWpP6FKHy6sHu4wu9F/aKdmfKrf7/dOS/9ulIVfL/8qcjTsn/g5+OeCQi3T/sel19yhLHquSkHvFTk0QBJQ8KsZNn15sZFzUiTxmwyp80QPVvyme6mdL2cADNeGEsv7B8Vhf9Nz51UzO5yFcar+BRnuHnRLO9PCNQuLi7+fyg/MnmwHs/BbwtL39s3x1+eXp+vn62uP9//E5Rfrp+4xg+/gE=);lineShape=1;rounded=1;" parent="1" vertex="1">
                    <mxGeometry x="-626.5718306960406" y="110.53864807657533" width="149.63711433057676" height="224.75967855711087" as="geometry"/>
                </mxCell>
                <mxCell id="4" value="" style="shape=stencil(lVnbUhsxDP2avGps2ZbsZ0r/gxlCyZQSBujt76ttxptY3hyGt7AceS3p6Fjy7tLN2+Pdy37H4e399fh9//tw//64S192zIfnx/3r4d1+7dLtLt08HF/3316PP5/vT3+/3C3I5deP469lhT8nu0gtL0Yc/p4eBErp/4OvJ/jT4fkCnimFAc5U23W4enihqtfhMVCoA75SiQCfqMqAj0yBgYGtx6OBEAMHOFHT0eHYfdo0SIE4jgZKoQAD8RlIiSLYUrYtjT6kRiVfNyiBWhkMculPtg20r7emzcIKnJY0GSgJSJxU0pEYwpQRkZhaGg2kp3LbQHrUV4NGApitlcKYOHtnAGQ1A5cHzTBKZpBHLmkhFehDcm+wgkJbYpI2GlRYcGKZHguoGllQpo39Y6ZrogzCWjLlMdNVsMJoL8jVoFEGbM1WcaMPzcIAqGH1JSOXWulh2BYBpTpSoyk1ZGAV7AysRAG94+riqkshQDJFJXVOWKqRQZ32JJ3x205YXLOPawCZM6+r44aQAGEydXfiqg3SNclUo5EKcDob+0YD0xmkxsW44U4sbGDr1TEPmSmBsNqOZdL7hJSsebraKZpBWC3qnkwW6HrdoMUe9dUgw2PU6iW5c9dkAzht9Hcq0LqOXMPHCQ/qx7ivzeMBkQxf/PqMIlSJ1eEj2r8V26jcFZ64hg/q8Irx0/qoBVj273SeEl4/OxEmBnW2xN/vP2I+TI1eQPld03+xPpAiw4v3lzHfqsdn5G/rBXURf6TvZzU/GyC1Xl4wJrhBsTa8FoePiNBtLgCkWobnCY8Lpk4FifFlwiMFqr4PabBpXgpGfDzx+hNB6wd4T1DUALfq41n7SXW1ID2ecQHLVJBYID6HF6rujIm95LYNUhfkizMGNb9VfYlZk6QgRDV2xq/npFAEMdLkR7WUYZFJ7q3uetYn2KSVQjwaWDehgEbZGpyRptZfIKeT9n9fTC0ocTafqmvSQh9Ltpu04kc1ywwqNWZiJ10Mm7Sl0RwTZ+xiECUziE4s8PG6bEm8AXRapo7fngD9Suai8yHDgTY1z1brwtARnsWHteIz3FpZP6oVmDiZBqm6xm3bwBrN0WDpVdF8GimPTttAK2hkziSjzCimhk63KbYE6uyWGdvNIAyFzNZzJ6fiK7PFaTeDKGxGRD29ZVWqazNIcDJTYXtdZDLgLgvb5JvmU6OjoEsqpjyyNQeYh1S8ttpY1NC0Wf1dxzKmI5nhPjWtBni0i8al8Q02dAcQpcj+utOeKHB66rJbHzO20+abWoH3HJMkJQgPvkOKvQW6Anf3awGma+p/Azz9gx/0A+yvp3vjAC+lpjtazM3QW9czPMK9i3cV3SMGf2sSYBMSfaP5wT2RPwQCvMOxM0g9HM01nd4XgYSb+dTHhg/h9uP8XePh8PR0+ixy+X//HcQenb6hpNt/);lineShape=1;rounded=1;" parent="1" vertex="1">
                    <mxGeometry x="-552.0773463503892" y="109.0306060396008" width="134.7474845674626" height="200.58568703345702" as="geometry"/>
                </mxCell>
                <mxCell id="5" value="" style="shape=stencil(lVjbUlsxDPyavGpk+f5M6X8wQyiZUsKE9Pb3lZvxybF8sgxvIdFi67Zaeefv3p8f3vY74ffz6fh9//vweH7e+S87kcPr8/50OOunnb/f+bun42n/7XT8+fp4+fvtoVm2Tz+Ov9p/+HPBOYq1gYT/Xr5gkvL/i68X85fD68o8keTBPJLLt82dUImDvXNUAwBkqjICMkm8DZBAzANAPCXggWeqfgB4R5wAoJAfQ+QrOQAI0TodMkW5DYhC0UQ1kgcnxELBDYAkFDxImycZfUilJ34boFEf85A9ZZDpzD1NC0BTCU7I0oPYAcWRYwgwiSueAgbEMUolkoAoqQ/FAFLPzHaUCvEY1pLhlVIgb3wo5BzIdLX9qYCKSsP3/uqAysSggbQ203il6qAPQdM0lkb1xCCsPlgfauip3O7p0i+wABIGTDRTC6xWVyiNJzjmTiTbCO3IsTaqpgYkwgXK5k6ZCjohURYbJgdoQ7nbUJ/WRgHkKnkqJtfP3M5c6qyyNLVQAuUa1Iex+pSYBLBA1OobrxR1IgEftOXMBNJ6DMCHXKmOAJ0AAQwILX9DfToT0ZDTWkuj006bEGS6LmlaAVC5aqkZnmkAkAcF+PkEDIjzCShKlfIEqPgEQ9/aIQxOWHXkCoHESTuiWEAA1aeAUi0AiYfmtVgAarkW18mHCuhYAWaONgDyofSf1wBcrjlNPiCni5UnjdsAHSsgTD5E5PSkZxTgUVgVMPngMCCa0vA4D8sAWQEKrm9brR6Sa8t0mgCINqrVMw2Aayn7yQcwszb7gbEPc/EJiNJ2UyP+3uSNhAF5YgE0eD8PEFuubRSDhmjKdjxBdw5U32mijSB97t3aCOrYcrpUeEAbofTELpPak0MqLls9oxtBAMUki1Bd1IZAxaQqLoxRKhVm2k2bmSqmjLbLZCe1ajLUcnqCM0oUC0v1QaYTEPXJIgoXQISTWtU0G72uCy+4UuANgY/oWzcCZ8KKVwjdOeK01SS0pFTbD7o3ReB0WnhrvZnh/TVMu18BtdQ6LlsAenjI2sFGfWseEICtNlZaQIlTqVvGKOVFaW4D4gRQbkUAZ1tUw/CBXDdCtLEGKg1nh1xMcMsPoXPEwnwFXkl5ybSor/CJSWpP04qM0VTUns6G7kOn55s0YwZ1wVLX9fehBSBdXm9HqUvtJQ1w/rBtaAcXGu6XvZojEaDm42UYhnMSAAwlt5oHY46YgvsQu5p7UJ9sy5OhfGG7DzMsZu7j62qO01Ssq/BJopPyyhxJr9lV9OzpOnOsXAWB/OQ78ofm+uH6ZP10eHm5vHivf7dP3PrV5Xnc3/8D);lineShape=1;rounded=1;" parent="1" vertex="1">
                    <mxGeometry x="-508.523634936299" y="96.58756882080263" width="158.66404009370717" height="195.01638225062914" as="geometry"/>
                </mxCell>
                <mxCell id="6" value="" style="shape=stencil(7VjLbhsxDPwaXwm9SZ3T9j8CxGmMpnGQpK+/L1VHmxXlHSO3ouht7eWsRJEzJLWLV89314/7XXDPL0/HL/sfh5uXu138sAvh8HC3fzq86NMuftzFq9vj0/7z0/Hbw83p9+N1s2xPX4/f2xd+nnCeKZWGCu7X6z+U4p8/Pp3s7w8Pa3tH2Q/2TCVt2xeKPH6eSdy2fSIZtxNyX3DDPoXBPibyjPbD435SoArsfaCSB0D2FPI2QM9Pxh1lIV+3ATFSHl0uyyfOu1wopRGgmwQ+5GpjpitE4AMHimJ9yCDKEqm4EZCIZRtQPWUDcFTBCjVTHAGJqRYIeM3jBVBgZijApkaGqVELBW8BAnJVAZwsgAEZKlOcVkBsU4DUdwHE0v/SlqSfydppkK21Upp8qCg1KvEcOEAgBdRkAQlsyTtHzllEQcmkSwQLqOiY1AnjNZMHuqq5kUbKJem6cB6gHB1DrcKEtiQq1EaYmBwIhIROsEU2IgUQCK5dGZfa4OAKrIdoikmBlNPXfgy1Kg8qVwqQMZmkkgenxEI8Ol0jOUBqmZSsKQ9SAWcpp6wtKL+9VYFGc0S50He8AIQcziXrg/S6vQXgYAGMdGYqo8oQj04p9FRbARLywfdDXAHgllynywpQEUU1mUenV0JyPjfUxzAtAQqvyBTqCutoIzVbQAa5oYAwATxewZvICezgFBCn3EAcVYClnMDcELGlvRECHasK00Q5WOUc+ZmjiBCeXJpWwOkqzgJgt6F6P51SwKQuYgEFU44nFahImIJtRDWXUF+pTtcpvWHd9T03VwBBzYObkq9CH2RqTxoA8aHaieMSYKmBazUGcWC2fWXrNFHNSpQNRWNv4Lf6ezMQNIagFTzxKK5adyMQ17bCKDNaiRnokvpQR06XChmnhdoon05BSO/bjs0kV3oLtSUzwTRMHsr9XzpyRAu4NHI4C/g/cvyTI8fSCa9GDkbynfrrhRABNtNSbLOhlEPNhqqAKXLF9Rbq/HWOs52rzigORK6ljrk8SbA7iVMJujAFebEzSsatrvJhGuQYiECwBShFeKhT5rUrMuCxs4NlyD0q5x0mma74EthPsVNi6SE5//lo66fGHHzeR3t55WAxVHvTibkusuftk1VIPOT66UrTwfLvs+2q8JDhi5321B6wWO2z/b7H9rXa80T7YVtnXU/wLfts44U6BbUv1h5dBPrlgvrthhv1Ou++Eb9orw9v1++3h/v70+39+r29rte/Tlf98eNv);lineShape=1;rounded=1;" vertex="1" parent="1">
                    <mxGeometry x="-785.948457212945" y="193.4772966489603" width="58.599903767870956" height="140.205108440736" as="geometry"/>
                </mxCell>
                <mxCell id="7" value="" style="shape=stencil(lVfLbhsxDPyavRIiqec5Tf8jQJzaqGsHjtsmf19u3Y0tbjRFbmt5hiJHJEVNeveyfXjeTBJezqfj983v3eN5O+mXSWR32G5Ou7N9TXo/6d3T8bT5djr+PDxefj8/zMj568fx12zh9cJrlUqaWRLe/q00auHvytcLYb873BKEWu4JiRKPCaVQCB2hNJI6JmShEDtCVko6JiSh1O+QjFDGhMiU+h2iQIIG0tIRlEnzmCDBx2ArtY0JrCR9DBxJgEuFIvfHQAI0MvPSa0oMrAcqvfVIBYQbKKqDx4jgLlalBjLItMwOjkINPt+EIvTdnRRTBtkZiGsHD9TAuZoywcGxMtlbZ1CM73tf4QHAmcTDGShjVZIdPCUEL9kJyeCYmGp18Aqdaf5UMxDSjPX5rqSo/Cj3vkcKMNToywM1KBNCHLzCU63eeoXlkbx11MvC0laucMbF15yQEVoPve9CRSC8992OGZYHq4ML9F1761ZeUPe0Kg9Y2tXXKi4+XtUq6DOfhCvl5oUECVyo9UmQlh47up1cSrJpA+yvGxlnKsh/9plgPgrIHLuxnUBal1778ZSgy433nvhtudVHc0jpsy21pYGOJh0XdIkwnZvVUh9DC/AmtNlM+y5owxdq4UZwzcEIqBEawd38RijgpI1Q3QCZYVHO8+WKgHbgsLrRWyFFujZ/LxqhgQY9E5xMFQ61c9ROprYk8IiQoydErGtcEQpIV/vbjXhXpT8mVK/SjdIjxicfC/8n2Mf1bfK02+8vT5vb//1bxpYu7yC9/wM=);lineShape=1;rounded=1;" vertex="1" parent="1">
                    <mxGeometry x="-796.8085775398134" y="361.312929353708" width="145.21941710193062" height="57.21194000468677" as="geometry"/>
                </mxCell>
                <mxCell id="8" value="" style="shape=stencil(lVbLctswDPwaXTEkQPBxTtP/yEyc2lPXzjhum/x9oVElm7C1bW60vEsSwGLBQR7etk+vm4HD2/l0/L75vXs+bwf5MjDvDtvNaXe21SCPgzy8HE+bb6fjz8Pz9Pv1aUSOqx/HX+MO7xOvVZI4sjh8TF9ipDx9+ToR9rvDFaEqFe0IrKSAkCtx6AhJKKR1ggppf4JmKm2dkJRSH0NWkrBOEKWcO0LR+ZJ3CZwppo5QEyVeJzQq/QGW5woOKNT6kJvtgHJErd8/hkABhUyt+QO0gIiJbwJIdR0fqEmPz1QV4aPbP/0DH9z+TAXEG0j7grUAZW2idwXGBRNi7vGFEsinUuwlWvPcRyuCiHyDh4Jz+bH7CKhXtHSoD/hvU9wnxDkfVxlNAghMUnzJkFEYgZ1GE2WQU7uSuhMyZWAUFrQ/wewPVKGS1puuAaqw48XjG3KuO3jkdHxTg0oNqlp6FTVTKbCVMGdjwevsxWtd6e4j0BbDbMsLPhIjlRK7rmkkQKR8I+oCXeWz+FjnploGh9kWSOho7H2Fs40SoGkxQq9pG34JXCllP8tShTXLwVudJFKQ1FIouGGTqYGqmZO46WedDZzCitr6G8V53N73OpN1n9QAvc58p6rDo1lptpOCxyPv1bkJL3hUMmtCri5eRvg6G+0lnzDe5ttMqADNGb72+yt0xau3xtIGOEGLqy19RhkH4Kbr6NxIEZ99xf4HwRaXR/PLbr+f3tzX//tHtn2aHujy+Ac=);lineShape=1;rounded=1;" vertex="1" parent="1">
                    <mxGeometry x="-830.1601155245108" y="374.81537500099773" width="28.79957751398956" height="26.754348977245968" as="geometry"/>
                </mxCell>
                <mxCell id="9" value="" style="shape=stencil(fZbdcgIhDIWfZm8zQAg/17Z9j85U606tdqz9e/tmZ0c0uJ47xP0I5JwEBl59bp8/1kNwn6fj4W39M76ctgM/DCGM++36OJ50NPDjwKvN4bh+PR6+9i/z74/n6ctp9H74nlb4nbmSKZeJCu5vngmZ6jzzNAO7cX8FVKEsBuBKrgKg9oAE8gkCbLeUhEoEQKSUDZDLeWYRKIl8MEDRmHwfyBrBG6Amyu4+kDxxMoB3jhwgYu7TVAsVkFcWCs4CTBEoF4RctKeOxHIf8IXYpikHikAIf+MNUW94AGSSaoAoFIE3AlOyeWU+p2E5S9yfQZcQILVuQOwZdJNoS9Ls3wA5u2XZTIHECqeJ9kDpSaauRiNVcAY1QhdBzeLBli5WazpkSsBLV25uRaqWRyFawTQzRRIQYirJzq5atkBqLfouwqUxLBepthWb10vrWZY6UOAeyKCCtDV625mm9gmUC4Wc3VLJMMIE1BsA2FW9JraVlQB7n3c9oMKhCLEvIM1zBPZ25/umNQ1tVEC2G+fFCC8g398O2hNQuQlVu752DBfA+q0ptnqO5JFmeuIuo9DY7KjY71UxdJV4EntifPWorW++R/dC4t7V3DlIB5cHx2bc7eb3yvX//QNFp+bHDT/+Aw==);lineShape=1;rounded=1;" vertex="1" parent="1">
                    <mxGeometry x="-688.9098101536181" y="383.43085445070665" width="4.672539772115442" height="4.665236216357698" as="geometry"/>
                </mxCell>
                <mxCell id="10" value="" style="shape=stencil(lZbZctswDEW/Rq8YkOD6nKb/kZk4taaunXHc7e9LVWUrgtRN/aYFh8RygcEkD2/Hp9fDZPntdr18Pnyfn2/HST5M1s7n4+E638rTJI+TPLxcrodP18vX8/P6/vq0WC5PXy7flhN+rJwRErdQln/++ULe/v7wcbU/zeeNvU3kpLXPFNI+4Dwl0wCSyco+EIR8C/hE0e0DyRHbBkhM3u8DOVPiBsixOjkEDDOxIhJJhFeEDsjgivI7tHUoR0gGQKxZ3AARRe3JswZyAIBQ8B2AXDKUggYSqFxmki4GD7SRinSMBhioL5W0Wl0HpI0BEGHQA5ciOZTWPuhYBbyb1tgCgSLSUilc0IBHLnndcgtwn/iKSwhInZYiGeRS30CxdsgdPWqANgZjAA+aRWtKG6X4CIj1vA0QUI8GMn2PolI7sq02NnkYE5Zc5xO8grs04SDS3x7+zzSVnou+KwQaA/cC0eoYkqmSHwLeajH5Ml1BWkUot9pwXAfDWK9B32AZCpz1nLHkobk+nhgUjWurbNYA0J6sC2CqcMfB6oFUQgXTolQrKXMBzjgSo8wNEIOnzMocNUzUan6nv8hY7QxcLch3saIxZ/Q6xTW3Y3vbV4qR/Z374Pv25eHf8vkyn07r7rr9r5fV8mlddOXxFw==);lineShape=1;" vertex="1" parent="1">
                    <mxGeometry x="-498.54824657874724" y="220.46129273538133" width="22.844273867328866" height="75.84826265054335" as="geometry"/>
                </mxCell>
                <mxCell id="11" value="" style="shape=stencil(lZbbUttADIafxrca7Xl1Tel7MENoPE0TJoQCb4+2HpOsHP8pd47zf16dV0O4e9k+PG8Gzy+n4+H35m18PG2H8GPwftxvN8fxpE9DuB/C3dPhuPl1PLzuH6ffzw9N2Z7+HP62L7xPnFSS1CjPH9Mbx0zM/179nIjduL8gaqESOqJ9AwAlEPdHSKBS14FUSGIH1EAxrAOxUO0BPbP6dSAkqtwBmSmBE7ynVDog5tmrq4Bj67QvlPI6wBRcfwCFiOTOd3INKXBYrenlnqRAuTNyBxKmculriKJDct+HhqmAUDLFauQe2l6ykTOIjLN5UjkoBEfBW2MEydPCVRBIR8XZQKIio9LH3ZOHrpa+hsONyORs5AUUsJpqOoQCSJObTT3LC8yqGQlxfrEiz8nIK5QHMfIEJhrP3XCODDaGo5F7UGJf4/ec1Yi/bgb47Pua7b2rPF8Aa83HRo5bOy+aDw4OWTQfiLvWTDRyNJbccnBk+PXvydV4MyQ1rwBof5sadnN0r99S2VqU9N4CyYp1rpSva01gQFO1hV8qzK/eq74HaqUEqrNtCz2gl38EjS5iryrBg0QBny1w44QoFiigIRXIfR4kkQNOK2D2EQUymJ0KmEaQDC+5iyXtghDshBivC2WQ6gYs9jxkU/OaLVCx19mcIBRAfbfMLQC09rTaYAugUf39dfh/CH04799P4243re+X/9t9XV9Nu364/wQ=);lineShape=1;" vertex="1" parent="1">
                    <mxGeometry x="-654.9344329332723" y="298.9554740606046" width="141.14796291240896" height="51.151837883888334" as="geometry"/>
                </mxCell>
                <mxCell id="12" value="" style="shape=stencil(fZbdcgIhDIWfZm8zQAg/17Z9j85U606tdqz9e/tmZ0c0uJ47xP0I5JwEBl59bp8/1kNwn6fj4W39M76ctgM/DCGM++36OJ50NPDjwKvN4bh+PR6+9i/z74/n6ctp9H74nlb4nbmSKZeJCu5vngmZ6jzzNAO7cX8FVKEsBuBKrgKg9oAE8gkCbLeUhEoEQKSUDZDLeWYRKIl8MEDRmHwfyBrBG6Amyu4+kDxxMoB3jhwgYu7TVAsVkFcWCs4CTBEoF4RctKeOxHIf8IXYpikHikAIf+MNUW94AGSSaoAoFIE3AlOyeWU+p2E5S9yfQZcQILVuQOwZdJNoS9Ls3wA5u2XZTIHECqeJ9kDpSaauRiNVcAY1QhdBzeLBli5WazpkSsBLV25uRaqWRyFawTQzRRIQYirJzq5atkBqLfouwqUxLBepthWb10vrWZY6UOAeyKCCtDV625mm9gmUC4Wc3VLJMMIE1BsA2FW9JraVlQB7n3c9oMKhCLEvIM1zBPZ25/umNQ1tVEC2G+fFCC8g398O2hNQuQlVu752DBfA+q0ptnqO5JFmeuIuo9DY7KjY71UxdJV4EntifPWorW++R/dC4t7V3DlIB5cHx2bc7eb3yvX//QNFp+bHDT/+Aw==);lineShape=1;" vertex="1" parent="1">
                    <mxGeometry x="-326.2431841770556" y="301.6530834546129" width="4.672539772115442" height="4.665236216357698" as="geometry"/>
                </mxCell>
                <mxCell id="13" value="" style="rounded=0;whiteSpace=wrap;html=1;fillColor=#6a00ff;strokeColor=#3700CC;fontColor=#ffffff;" vertex="1" parent="1">
                    <mxGeometry x="-422" y="272.3" width="120" height="87" as="geometry"/>
                </mxCell>
                <mxCell id="14" value="" style="shape=stencil(lVhJcttADHyNrijMjjk7zj9cZTlSRbFcsrL9PmBYpAhQ7MQ3iUQPB8s0GrNLD++Hp7f9LvL79XL+uv95fL4edunTLsbj62F/OV711y497tLDy/my/3I5f399Hv+/PQ2Ww69v5x/DCr9GXO+U+4CK/Ht8EpiJ+e+jzyPidHxdIhrVYBC6RhMAKFTEAzgAQFwBGuW4DRChkiygwC9IWn0hQB9aI2EDkEYNRKkFyjZKEqmDLdXsE6HfzHUbUBpFBwhUQJQKU8oGUMsUt7uAnKjbL5ROAnxIQqlYQJ6e3AckijasWagDp6NQtonTTdYMAJmCBegmUS1F9mHVTSYQpVCpWad1k6kBgBZftYAEExeYqgUEgbUkxNbnkGGxlmm12T5QQIXhs6YOo5CS2ABV4g7cpdJsiolBhlf5ipTA6kzBZYsCKDjlQmseSICrM3XezDMIJE8sdTNnbG7rgGHtq6vNmaM06dvgzAMoGqbsV0dtY97qwhy62rrfDMxqj84ccWfwaWKY1TkrtzRFbO6zWqGr3a/eoatiXY0UQefSuDdnngE5MRV25oiaVi1FVwd8PydxsXdo7nmMOqz3VdwLdHV1Vv/BBL6AGzQPyZmjtqMs5o823kz29c5wdSd3GMoj9cy7itrBB83jRCsLBkYawWuKPBH+Rm+qtsTq1G3vy66pWcxCkBI4TSo0XTuIsCRvjXQGNBgc7dTsjrcqU0Q2zQucwWMUfvYRSgGSpYbU6ZVUISlolFzDz+oD0o2qf2wF5QYLVDWcY7USoebK2asElc+I8lUsV5u4ikWarudkS+0Tl24J/mbD2gqkCJX3TgaK9gKQuCaesqTATqRjkbihpVNFx0H80dfZTUAe9HWzUdJJLYIDpK+bmzbrtMTmeGqLr+M5SodRPzzOE+4WYP2FChhsmI+rB0Afuj9ACkA0owCnIbrA/jEAxANQ8S1uBRYIdKjvITq+WejT7LcARBynvvoCOqRDYKMHNHAihtcrgID2MxTH6nako9uRj1/A/AdCf9xufF6Op9N4YbR872+I9NF4u5Qe/wA=);lineShape=1;" vertex="1" parent="1">
                    <mxGeometry x="-810.2697118926083" y="154.16819226426867" width="289.3468376484011" height="118.13463396257453" as="geometry"/>
                </mxCell>
                <mxCell id="15" value="" style="shape=stencil(lVjZchpBDPwaXlUaac5nx/kPVxkHKgRcmFx/H22oBUbDNuU3DvVKLU1Lml3p08fm5X29Ev44HQ/f17+3r6fNSr+sRLb7zfq4PdmnlT6v9OntcFx/Ox5+7l/P399fJsvp04/Dr+kJf864SKFNIOG/5x+YJPz/4evZfLfd35jb3yl39olSWrbXRI07+xCo5WVAzBT7gEIhrcuAVCmGDjBx0mVAYWo9QIUC4FDDTHEGRHuELAMaEztAowo8tEyifVYrZVCGwOaiz2suJAxcNCo965JIQCFaolI7QBWY19pIew+1UAUkqmWx99CEpIHKBSo9aQsyAg9ZKDpAoQQ8JKXkAA2ejZhI+8rdlOa+IurAusGYNFLtFdEqBeQhUJYeoFQK9NB6gNUygLyaqmPpAXX2eR+Q58LeACQCQBkOUyVGHqwNOA6FGiLdfKkrTquJPkYPiAgQKAyACkgbIKmvg6JmGXw3NgDqTAaQPiTrVRF5YMrsAciDpdVr1HyiCWEnJ3oAErUdDZelCYD0YCOlDiHh452DJ11BlgzAQ5YUa7oMlUYTYmoCg0RRr7SQpJ9BdvhgE7BJPUhUUUiZ2uCBwaS2Srux+FiiYfSABMR3AChL0yAfJJoBBxOQbwIWJAak5gEFNwF17Z4xh88CLK3Sd41p1qMhFyk5PTzYyWzHcxLNVEBImefn3YSEBJQbseOgEFDKwIHhilUTBddbMyVA2pqKB9hhAQtTGwa7rWQBcLCcSD92bekrgIOFlHs9pDaPySXS2a33l215Ka3ahxQF9laLmPujoUoZrWTRDxS7clQ0dmW4cphEUZsRym6HU3hHCWXYpeHpDr4VCyVQBJ7FeDVXkFGeu/TVnIGYeV5yLmRhOxruGXg4s5dlgCOB/YFmOKPYL7Y8XxYX8u6oXtwtmGcfDNoHrSr+6Yxuzn5aPrgm+L3LzEHsn7zGPzS3D9c3Bm/b3e78wuH2f/+GwX46v53Q538=);lineShape=1;" vertex="1" parent="1">
                    <mxGeometry x="-769.5253993783454" y="148.14577174987357" width="52.00337262616449" height="103.15633483379304" as="geometry"/>
                </mxCell>
                <mxCell id="16" value="" style="shape=stencil(lVfbctpADP0av2q0q70+p+l/ZCakMKWQIfT295XrWcLKcGzejNFZ63J0pB3k6WP78r4ZPH+cT8fvm9+71/N2kC+D97vDdnPanfVpkOdBnt6Op8230/Hn4XX6/f4yWo5PP46/xhP+TLgs5MOI8vx3euOI/f8XXyf7/e5wZV8yxdzZZ6r5vn2NFHx/vlAJAFAo9gDPVAoAVEqxB1QK9T7AMRNzh5BKPkKfQuoAoVIWAAgUe58SU2CQ1kLcfyFpWCBNxZGvfR0yBeBSDs2BBiihpeE2wNmgSyVBAKbYU6kKMSiEck96l5Qt1QFAamW6AAoVwFYN2vdkUrZ4EEMqlq4KiKAOUbkWLKCAL4RCXiygpvsAie3vSwd9EvgmwgvVWRAVpElbUrIFZADQpnbWHpFPO3h2PgPV4FmOCiXAJLGipPaCAmYrMgqAKWWSvgg1UwYRiLcNrYAENCbM+nMBEBNxecSlFJuOXgeN2s2381amVfuTgwWguuVIMuseBmKvGpNnAMS85JtQr6W2Jzf7AmqewLYOi/2Zm2itlACX2ixYKTJKhFl/RpAlZyVG7R2o22yAjjoMmPSovfZzP9zGwQDjFWMvUF8K1Z4UOto8sHeupfsCUI0FY8EVuwDoeBbwBZVUZzYGXQBAyOJszLpiCGgdCW1RW7nEiHZz79LCmqSTynSCbmIRxXDZD652PdRrWrhiZuFCHVQd+qALOfQBO6gcOaTyJH2fMdxfotVThgqvU8rZ45HWqUywPd+D5Nxy32HKmRHF8K6gdDEDB+viuBola78wAYP1H9iPs8D6I6BcugyytY9o/DlKYuwzkPVH717L9vrwedF72+330z3x+n97MdRX06VSnv8B);lineShape=1;strokeColor=#000000;fillColor=none;" vertex="1" parent="1">
                    <mxGeometry x="-602.5270337183279" y="91.69792483672973" width="4.012685220714047" height="129.18077977745418" as="geometry"/>
                </mxCell>
                <mxCell id="17" value="" style="shape=stencil(lZdNctswDIVPoy2GJEiCXKfpPTITp9bUtTOO+3f7QlUli5D1XO9k+QNJAA+A2PHTx/7lfdcF93E5n77ufvavl33Hn7oQ+uN+d+4v+tTxc8dPb6fz7sv59P34Ov5+fxnI4enb6cewwq/RzpGXwSi43+OLKlTy3zefR/7QHxd8JHYNXypJ2OYLhXb9wuQB7yPFdgOJVMq2QQjE7Q45EadtA/ZUuTFIkaQClwPV0BhEJuFtA10vtT6wLgF80BOX1iAwcdw2kEISGwOvYQVpq45cbp2mAE5UC+Xa8CoUB/l/Dl55h/g6bb/ggSyUT9meRyAvdv0IUqZ8jYYXsL53s39zBnACdAMxfAIqVb6YDFP1kM+tqgN5IGrlORuecUCdGD4ChaogxPJw/ULJ2/NjgbKNf0H+lmm5RfyRIJRPNr/Y39CeXwWE9FBs21KBogLQgnSGh3orU9f87wLzDxZwtOf3WJ8SDM93CtL6m3G91LZh+Xv+rngY/zrJ68qjoTH4u9Izjk9c1SOOz2O8s1NPYP1KtQPAp2mU355hmUqbYB0xESgoJUqt4jhBycVoZ1hMJMCA2dZwylNWbn9LMOV2hyxTWd8eA2kSwRzVTBm1ORukEvGnhFVp9bCtz0Ni5rXPgzaqIk6Wz0AW89Ba8AWc3xOvzlNBGXub4sWgvWngqKw3AAlwlGTlAOijzo7JIUBwfV8tjz48nB2rQyMGCVDe+FsmSW3xzvIRCGL1nTgMQhifx+4P93l9uF5W3vrDYbzrLP+3lxt9NV6M+PkP);lineShape=1;strokeColor=#000000;fillColor=none;" vertex="1" parent="1">
                    <mxGeometry x="-757.074599057546" y="119.76905436136292" width="135.2028501557702" height="102.7568597092469" as="geometry"/>
                </mxCell>
                <mxCell id="18" value="" style="shape=stencil(lZdNctswDIVPoy2GIPgDrtP0HpmJU2vq2hnHaZvbhxpVsQhWz8lOpvGJAPgAUIPcvewfnneDdy+X8+nn7s/4eNkP8m3wfjzud+fxUp8GuR/k7ul03v04n16Pj/Pv54fJcnr6dfo9veHvzAVKboK8e5sXHOV54ftsfhiPK/NCgRvzRFG2zTmR18aehTJvAz6SxgbwQgHsIJkkNYBEYhBBdORal4ISgx1SpNzukIS0bAMabdAq5ANIaiENDVCUUgJpdTUIZ4kCiLpFafNaV3yGQFILRLyDFwtkkKYpxmCBgtKUqRgxXfOwRYjrtkBBpEX9K0A9BLy3QEIuRSpsAQHyq4B2OzjkUuyOWmHNla5IKxDQQdQsdQAUeLZtowKMXFJbpNMKFlPuSoixXKVzCZ5DVbNYIOIKKtkCeqNGiz1pxjvkDggYCJ28M9KS2nY8OYnkXYXQVxw6uEyxk/e/Mt8Sn3ZBKwbMhLj2ts0C6tN6o+K+BChTaF3SQC5uA4lt10gBzumQiLspV9Ac/RizqzlaQAyeFzF/TOpAHg0tT9xmiQO8PNQ53iojL33qv+aOuO0ANclAeN0E5WV+fc7cLdW95YwYc9SCna3LugBDNf3XwczUyKIxRxcetl2lxg7MvS0vPJP9IsPPvV2WhrbyHahSlhvEKjPgmMLS8ld5h+ZfuizfNK8P13v503g4zNf69f/2Hl+X5m8AuX8H);lineShape=1;strokeColor=#000000;fillColor=none;" vertex="1" parent="1">
                    <mxGeometry x="-614.8763078454092" y="116.5586176127365" width="60.41974243545474" height="131.9181954009166" as="geometry"/>
                </mxCell>
                <mxCell id="19" value="" style="shape=stencil(lZfbbtswDIafxrcERUmUdN1171Gg6WIsS4o0O7395BlyI8b+g9w5zkebx5/y4J8+9i/vu0H443I+fd/9Hl8v+8F/GUTG4353Hi/1avDPg396O513386nn8fX+ff7y0ROVz9Ov6Yn/JntmIKfjIT/zjeKUin/73yd+cN4vOIzldzxWSnnbd4pudIZpEwZvEBC+7sZaCHlbQMfqKTOIBZybtsgREqxMwiZGLgUlVLvkk/Eum2gibx0BqKkcdsgKYXeJZfhG3Ig7uvgHEnaNihsg47tlet8ajlsPLeYtniNhmfkTya54UGVK5+94Z0HfCEfDB8wn+zzUZtWvmhfAAoB830PCTHmTbxCivJfKHLfo+Qwz97wAcxxzX9Qwyuqb6J8w6Pn15Gx/geU/yo7YuNF9dUW3lU+MW9HGA7kxJsJbgnb4mOvWkwF9b/afmPcb4mCfT7MT9WbB+dR7XzB/FRNzob3QKQrr2L4hPu5sMm/AH1zvMT3aZDvDHAviHJPUNQOcMEJEjsAHg3Mo7y0Pb0s4hbQ+oZRkr7AzsMK1L2uRuEYrhi9KfF0ukB7uDRJW0IuFECT1r1uDGJ1CcRQ97o3hw8s6zWJvh+z5KiAtqh7PfVznGujgjrUvW7SmmsagPJ6EnOiK02a1kOwfT11LmhUoSiWz8AfIceWR1V27e1L3zGWIrcSMOpstpt12v2QD8XyqIl4xR90FFqEc+EzLMCNcE1nKegP94Ncd0MCSsH2xD7tZujPY58Q9/l68fm98jYeDvPnzvX/9vum3pq/jfzzPw==);lineShape=1;strokeColor=#000000;fillColor=none;" vertex="1" parent="1">
                    <mxGeometry x="-483.3035393945977" y="127.27448652407566" width="77.27230653864262" height="77.02307858997779" as="geometry"/>
                </mxCell>
                <mxCell id="20" value="" style="shape=stencil(lVfZctswDPwavWLACySf0/Q/MhOn1tS1M47T4+8LVZErgtZ68kZTuwQWBwkP4eFt//S6Gzy/Xc6n77tf4/NlP4Qvg/fjcb87jxddDeFxCA8vp/Pu2/n0fnyef78+Tchp9eP0czrh98wLFMNE8vxn3mAS/2/j6ww/jMcV3DkKpcFX8gCv51du8N5TSduEUKimhqA7rmwTYrUexULitgmiEnxDEKYo24ScFokLIUcKQEPRmNSGUDJJ2CbUSrG1UIUKEK2EnFtCpoAt1I5wx0JtNdRCEYhWQjEaKjHIwyS6WkLELnGwhAKKb/K4s/Ch6jYhU+0sfMRtixDZEjLSIFSlE400CEmyeago00LJWUJAGpRgXMqUUZRkkbgieNBA+tkZC1reSEPuRKuTEWbasyVEZKFQ7lxKuFp9toSMRFeSruMcyoOWmrcEAXlwzMRGdcGJ0H7pmhomoi6vwapc79wzNhHaELhHpVhCRfeMPgetS6s4bFVTytZEwfXK3b2RkE+fJRTpcs1Lfd1+gzzltiOyHgE6ImliY0OQQAwsRG3JNkrJkUcvtSzXyvXh5cXm7VnAkWuj5BNF4NL1Hb9m2kHNvMT8OjpQhHAvBs5ArxZZW6ieEujOrjc9OXC/KLxNl4NzGNtQamyh77GNDFOGkSls4BE0mNaJM3DkjLMXo2pHI+Ry2AoOnPH2xlJnAFxzLgYeQJo+OS7fhevi/2T+Mh4O82C//m4ned2a/wWEx78=);lineShape=1;strokeColor=#000000;fillColor=none;" vertex="1" parent="1">
                    <mxGeometry x="-407.3292352678591" y="126.34121791532687" width="72.38592793325347" height="70.74064469043515" as="geometry"/>
                </mxCell>
                <mxCell id="21" value="" style="shape=stencil(rVbLbtswEPwaXQdcvnZ5TpP/CBCnFurYgeOk7d93VUGqubC2DdAbLc+Q+5ohh3T3tn983Q0xvF3Op2+77+PTZT+kL0OM43G/O48XXQ3pfkh3z6fz7uv59H58mn+/Pk7IafVy+ph2+DHzWobwxIrh5/wlNtT8+8vDTDiMxytCFYTWEbKglm1CrsixI9QCqduEGNFyR5CM2LYJRCDqCE0QaZsgkNTjG5idnJHJ4sXBZ1Cw8ZTgZAzqE25aISf+ADbxRwTx8MEUlMFOPMHWUxIoefhWOzxrhZ2RiMj9CHFBcuLJKH38HN39K8TsT25/GxLZ/cnB68CVvgGcEZwEKCH1GmBG8E7QlE0L6G+EVnpCQfEJ1Qx1WJS9lUPpc1DvIGfqtEpiZMDITpXUeMwBbRHeTTwj9ngKwW2Del22B5BzQAQbfF12uJ3xopIVnxbv29KZ9D1rrm+t2V0Zo2e9AdXgg7s/oRkdVCRnhtLiUis+LcL4L3hiq4IaULy7RjPuO5DJHeqqVtRb12TGTstE7FDrAQ5eRcV9CsHVsTp5ZYv3NKNG0QxevHi0o71PrGZ8G8+L064VRfPiaXZGGc2Lp9m7TG3Dm7krja+MguAMxXRZG4KAfYLRsRYpegSxF2zUC80xCu2C6ZqWyXsTffqZ9g8EXfx5FT6Ph8P8qLz+374i9dP8Ak33vwA=);lineShape=1;strokeColor=#000000;fillColor=none;" vertex="1" parent="1">
                    <mxGeometry x="-410.3666434755128" y="211.86234398931276" width="20.846345365411935" height="11.044466538681604" as="geometry"/>
                </mxCell>
                <mxCell id="22" value="" style="shape=stencil(lVfbbtswDP0avxK6U3ruuv8o0HQxliVFmm7r35eCYdei7BP0zVEOKeocXqTBP7wdn14PgzNvt+vl9+Hf+Hw7Dv7H4Nx4Ph6u402+Bv84+IeXy/Xw63p5Pz9Pv1+fKrJ+/bn8rR7+T3alULTVypmPacXPCz8n/Gk8r/GBXGjwhXzex2f5uzR4G4gTMHAU2oCcrPC+AXty7Q7ekQUhJfGXGoMgLsy+QTTEpjGIgbLbN/CZ2DcGKZEHrDrxlxsDLrOLTQNrqCgZ5NBgB0uu3UCEz4BV8a9kM4YMIKnjSDYoQGdDwWk8R4R3nX+UeBJtK3LJVABBy+lW+Dv+lQBMOSC8ZY338LxeCZbu8JmCxjM8b/Ean0D8kkCu8w/xIevzovyxlDp8gAmdjcYjfe1csSt9A+Dfztm4zh+QDxJ/l58B8uNZ4xn6N0XjCyxg7vEF4dUcqA0CdCCpxy7+CHqi5H/Hj8H1ZTX/Eea/6fQ1MP+twjNF2N98l28G8h9V/iSo73fxMgFsW/AyalFAMmMUQ5zgjPGsh1JaRu2mQSi6xqJUHdAg2VnSZRLLqcAO7OaeuVwOytxXt28TVo8ZW+bpv22Qdd+1dp5s2xcirwdTIgf6Sm07rW5LJe3hU1J4VDdfY26FR/ELgVHjQVaU7kInkgFCBa8ao5kd7OE5KzyDvlLbWnteCy9CFa8Epoj6tOluBu4eoSUpPBo0tc9qPLqZVYLaeCQDsWDfu+HfxcvH13PiZTydptfI+n/9/JCl6eniHz8B);lineShape=1;strokeColor=#000000;fillColor=none;" vertex="1" parent="1">
                    <mxGeometry x="-345.13551257756535" y="351.2545776726687" width="137.54840681895962" height="74.62020471086328" as="geometry"/>
                </mxCell>
                <mxCell id="23" value="" style="shape=stencil(rVbZjtswDPwavxKSqIvP2+1/LLDZxmiaLLLp9fel67oNmWqCAn2z5RlLHA2PiR/e9k+vuymFt8v59HH3dX6+7Cd+N6U0H/e783zRp4kfJ354OZ13H86nz8fn9f31aUEuT59OX5Y/fFt5IhR5YaXw/feK1J8r71fCYT5eEwJJsIRIDAitUBRDaJlSHxNKp2R3KI2ajAm5US6GoCu9jQlciLMhcKUOdkiBuBlCSnCHRsXio+LLGB+o2pA7FXAePY44eGIET9HeAGVw+EChG3jdoh/B7d8LBeCHGzhTxXCnPDEO1QoZt9hHQtq/B8oQXrqDBwhv4uFQSPHwAuCRYnWhZmAxFcILWTOCc3LXJMCRCnc5SwxyPHpHVmiC6E3QqML06PaaOqxQmnzNwX9l4wCeq4NnCE/+7A0eJianTMPJx073Ah0Z7DXlbbsR3NbJdO/stg5HKrDosTWBXgRM7eLhEerekoOH/wdvHq49DYS6HN4lqxJA+mmLKvZi1WYRZJS2vOp6mmx1fNRms/NCxz2tUHbWLFu1/fuoEL2Xe4Ki6ujBViWdNpCsSijZE1DNVEK7mV4iGneEOnuC4B3EEdJdgq1WkimgUhtusljKVmSGW9gaJJUycN9CcDu0TemhrrZ3idoLBKGEamuFrqCE0M9ZPAEVo8VMtl5cCTdi/OMsfJ+gD39G75f5cFgn9+vvflTXpXXM58cf);lineShape=1;strokeColor=#000000;fillColor=none;" vertex="1" parent="1">
                    <mxGeometry x="-542.3884403664624" y="366.55179188284376" width="191.27337407183336" height="29.32873438432557" as="geometry"/>
                </mxCell>
                <mxCell id="24" value="" style="shape=stencil(lVdJcttADHwNr6gBMOvZcf7hKssRK4rkkuUk/r3BsERrwLAT37h0Y7ADM+jdy/7heTdIeLmcT993v8bHy37QL4PIeNzvzuPFnga9H/Tu6XTefTufXo+P8/vzw4Scnn6cfk4Sfs+81ojLxJLwNn/hECiEP5++zozDeLxh1BXDZMSyTShCjXtCopC2CSlTSh2hZmpxmxAzhdwRSqOatwkaiWNPCCR1myBCtVcpVcptm8B6/X0lxEQFnJAo9iYoUwEmBCrSxy2TAKcuQV3wJEB/g/fiwzWIG3BmB09QGSkOLtDW6OEBJJy5Jng4SGizTD0cKMM+dUx3RXD1yiTgSKbo4SiRDd7rblEFhWLKNAfPUHcXJqaGPdPrLiSC/F6rgyuMak4OHmFUnWdMOkxg8XCG0oN3ZMHVxA4eoWdW8ADCtFTDR85kWE3ia1Vhra4ykqHu2TeOAP3u+urSeDZSbGUqw4wULz3C4lMvvcBqWhUf49L+DFxWSZBgo7Gh2cdJlyT9uzrRRyoqNeB7sZHWa2SDOgMLbMqW3p+5wtYasz+hFEqAYAq0vofUSAk4qShxnxFNKAGjbdtx1dIyVZAUtgxJ79ZW4KSdtif2BMUnpOYJEXjJCCV5AuoQRqjFE9D4N0Lrt5dWSUD/vFkybxgoENMRzRMq6FsToR/U0677D6uTJ0R8QmFPQEvhFLnVCWi8229d7doNDMnPr/P/w7CHj/vD03g4zNeP2//+vmGf5ruK3r8D);lineShape=1;strokeColor=#000000;fillColor=none;" vertex="1" parent="1">
                    <mxGeometry x="-726.9651915998202" y="263.95449759713665" width="175.37433710554478" height="104.34887470163028" as="geometry"/>
                </mxCell>
                <mxCell id="25" value="" style="shape=stencil(lVbZbttADPwavRLc5Z7PafofAeLUQl07cJwef1+qglyTgsbwm7zm7PKYITnI08f+5X03RP64nE/fd7/G18t+kC9DjONxvzuPF/0a5HmQp7fTefftfPo8vs6/318my+nrx+nndMPvGReI2wSK/Gc+YGL+d/B1Nj+MxxvzWChXYx+YctkGpE45GkDs1MALJZOwAaRCNWwDWqRWDECvSHEb0BMF65JeIQjQKQUD6IEEuKSAUjygVwho2QIE1kEB3dZBoxIACHwt7BWRqQp+IllApZBwEO6FRtJxmhygk2CXJHlAaxDAxQM6ArRVDOokKnXzgpiuQGRqlNintWCXxLGvYLo2ryDlBszStUw37MuIfRq0o6sqKENAtW1GBZGx5Dh5QMAAiSsApkZeuVSx5Gr3QRfskheQLDJ/QKMR5XXdBgoVLDnXLLU0dxpNcS9cNbXZLMUDKo4hWJdu8rAp0rZ64o6qHwMIFVc6hn1DJ0i2Iq3ajwGgJE+OnCE5dJBGm1fREzBTdFQnN3mZEnBJI4yuDkur2rAv3dsHwAy9zTEJyocp2pppEcFs0Ldteipsw+z7S1l4vmVuhZkXlm+Z21TqyoFvt5mMkGyaGVco6mBEsR84YYl9q6zWnJftZ8O8JWfOqMc9tm/eNdeP/6vt23g4zJvx7f9+FdajeY2W578=);lineShape=1;strokeColor=#000000;fillColor=none;" vertex="1" parent="1">
                    <mxGeometry x="-662.0614849495921" y="241.8305650567214" width="150.70289107941835" height="28.891415515934227" as="geometry"/>
                </mxCell>
                <mxCell id="26" value="" style="shape=stencil(lVbLctswDPwaXTF8gzin6X9kJk6tqWtnHKePvy9UlaoIjdbNjZYXIIHFAhjiw9vx6fUwBPd2u16+Hn6Mz7fjED8NIYzn4+E63vQ0xMchPrxcrocv18v7+Xn+/fo0IafTt8v3ycPP2U4qeZmsgvs1f/GJpPz58nk2OI3nlUGpxL1BTMRu3yBFEtcZ5EI17hv4Qlw7gxoogScFyj1ehIoHF5BwH7Jz5EAInmK2F3DYxzuqfcSa5Qr8O4qlxzPFhPDOBJwpCcSb90RKGeF96PGeEow39fiqBACGNT99CdVKAbzHN/oXPFMC+Qnk2OIDI3ypFs8AHyk4+/5aET738YqDfMVN/agAQD4Vb/hKd/z/ZWfBFyiw2LK3qmcP888GL7CeA/kNXgDeU97oscL6l41/D/hd2FnpEfGresk2nyg/qkdv+bqDN/0htA6w109M/bjW5XfwbPRbqUA9ho0eC+Trg/jcJkozKEowICyFNlGagU4dBoopTNKHPCUB3CBsNbCQvoc3msQjRhVlZoCjACibJooZYti/KrCvOS0h5F9aBSxjnjL2b3p6hvlZjdyFYxLA2NQSTJMmRgSILQnv7kVguorHKpuaSP8ir2MVc8w9B7prRXTDR5ez/zDQw79d8GU8neZVcv2/3R3107x3xsff);lineShape=1;strokeColor=#000000;fillColor=none;" vertex="1" parent="1">
                    <mxGeometry x="-638.4721574360415" y="281.7386181601389" width="70.17363885940267" height="21.10505361588025" as="geometry"/>
                </mxCell>
                <mxCell id="27" value="" style="shape=stencil(7VnLchQxDPyavaosW36defwHVQSyRUioEF5/j8ziyViabYojVdw2E/fYklpSW3NKLz7fvvl0c4rh89Pjw4ebb+e3T7en9PIU4/n+9ubx/KS/TunVKb149/B48/7x4cv928vfn96MlePXx4ev4w3fL7hOKQ1QDD9+P+jE9deT15f1d+f73fpGpa/rmSReX8/BbtACRQRoJGUBlEYtXAfEQrWuAKacrgNSpRoWQE6UwJEyU1iNlkwZAEqmsu6QOtUCvBooyAooFMAOPVJpK0CgW3sjFgtAR1KAdAcAblVAyw6QAUCZ5mxoyIZO4gAdA+pKvpQpIKM79WABERmtgG4BwigfNNRuiwL4PbaIFlAbtrpYQMeByMZNhRgfKTq6RmC1cqOzAyAbtM4YoxsFtINWldVoYYr9OqAWy28RWMmyK31SJuOP60y3KSeVMgDEME+82yEBo/OM0rY+Tv4ervfUq7DKyKTNtj7A9OFCebU46oEAIEXiNcz6igjaj/TpwQ0QqAIXFbEJqmEUSAuTPIz7VWPqa/JwpgRMqG02m81J2n5A1Eq1YVa3CUieHG2d1FxAvBg0MB0xzJZ3zNREvOZzzpBJnKyXsmYb8BKz9ZKGvgOjdYdmkifCOMSNyzu3Ii89M2fHbsFCo69x4EgR7KDpLquXhBgUDA20IfeW4cfrqy0wgTJIT13fVmkV54Pj9cr81UNb3T9eH2y75Qo1hgJMDeYKWZGd/FR9yYDZyjJjMjcoDhWQsgOgEqY6SRwAGC3b+3YASKNm05kb5IX2pdpcHADxBoAtAJUkBbRoAUgxDBvMkQp17FZxACSTFNCLBRQEcPJzAED6iBOH40iY3ib/FdAwvWu2bkXKbWRcsoCESsARADXQcaRqAaisDqNNHDRFsZeCy2kkJsXp25FxOHA+gRLKhzbvg/sjYYBpoLwR/moCuTg0EIfDFM0ogapTPhUq6L8GaLsKK1sbvKirRDDFO8J7jK4393SG0m1UgJWqApkqwV7rtZ83JG95yved1AsgaKO/mntSIgFHGgVldamqHlSTWGZu7XQVymdVs22tejnN+cmxDWw76B8AyV0znvPvWgGIxoYA5wB6CSjrkTQy8BaQbT6PyKDbZJ8VaHcLqAiQZ1w3AEMxWbIrYmHeL69OrUxNipB8SjXbECvW6I2qEcQJqrFqBbTeJxFZox3UpQJlSbFh1nsP6ujRyUnBQ7HUHFUzVCWqoLtYABxLZEukcacH3G6qe8wlvc+WfTwpyVbs6T0FTRn+jw4vgP+jw39jdJhs0x1GowxyowZNCDQJLNVe+bTOoOGkNkCb1AVrsWBTTrUNIlN0t9ASoWKNTpoUfQWer8jqpRagiGanAzrP8cAxINqZr5IFTaEUkLsFoEmaAqRaQMYAM1VWAOooanR3O6DCpIDiPsCh8q2AmB0AeSlMjfosHPCYSBHeTWiMO5QIO6sBv/v8ordbXwE1+hxT7eMG3y/u/Yjcf/sV9M/r9cfzJ9d357u7yxfb/f/tJ1p9dPm8m179BA==);lineShape=1;strokeColor=#000000;fillColor=none;" vertex="1" parent="1">
                    <mxGeometry x="-630.4438130499375" y="233.15941919315253" width="86.03236524923227" height="162.6962921946515" as="geometry"/>
                </mxCell>
                <mxCell id="28" value="" style="shape=stencil(7VrbchsxCP0avzK6IIGee/mPzDRtPE2TTJLe/r5sXW1WKHs8futD3uw1SAIOcMT6kN893Vw9XB9SeHp+vP96/fP46fnmkN8fUjre3Vw/Hp/t0yF/OOR3n+8fr7883n+/+3T6/nC1SC6fvt3/WFb4ddJrQhIWrRR+/3ui1PLfJx9PCrfHu61CJkmDglYqaV9BlGoZFCQQx32FGkh0UKiRQttXYCWNg0JRCryvkAuV0ehSKYV9hZT6zxuFBnaIgWr0NmR0JOJxg6pUgM2RWhudWihWtL6OQdAALTYHyiifKCKDmcIIC2lUgQEpkDqFRKUABYNZHl2UKCCTA8VxB24dKHsKOgIvCymChZLUQWHxmwIFpjqG2ZDFIHli8zZY5GEcUsflqpAhUivpGOjUqCAneZMzUwJhyz3XNz7NwOLcYbyRr+A8ibR5eUG48xFYYoxgR3mSx+uHfMn5oy92Z/wTe1lY5c9UIuLi5RkWlqxePoAcmOXLmfX9ecqZ9b29DMvE7E+mKPvyTDzhOYLzSF9tlU8Q/zFScglpAQZlKxZqLuWtkOFKWkfI2Z4NlS3z4Hgkpow2KL4uhs4B9ip1jE4+gxCYfG5OPgIKYvLVyyMImcNDuEw+e3l4HqEi3l7UBdausvEnXr+N60cI6Zcm9CJfsbxvMhhw0/oJ42E6f6aE5Z1/cqeQe/iMo7wRQuRP67kuYSwBUI1uxM5gixhSmLiK2cQo6a2turLIkJ8ZwWzjkXglVK/zdt+HuUDQtQ6BVb5CH6mvESYvIGjqKbjJNwA69TFmy2pwHukB2qyPyJ/4Pmby6JYinYZt/Il4hHh+bPIRFAnxPIIZ9tWpL3GGSSCdd27kE1zf8T42pgnxEIuXF8BTDA/T+oh7r7fUzfkDKHKN0iRfIP558j8i3itr3sifyUfnnwJ5t51/widqSuoviCZfwXnUkwjGvFInf66I3cGPzutDnsWTvQVUUKE05XvA+Tj5H+d7mOKLmp54DmTyaCZxqfx0MczaWd0eD9WxYGXMEq0nuhGG9VlUcaP4phe1G7VHXH0fjrDGGQ8IY5EouNG/Edc34vo/E9far47rDAxm2DyMWJIUXbalj2Y306CEeGii6q7DRiuBgnqELuMFAKG3cdDbOOh/HgdNg37rkoiGFt9Vl5wGJdESzA36l5qLAtx8j7GkZnwbdkdarq8oxYJ/o7OM2kHMcp5ArXgSn3zdLRZ3gNKlsLtZ/zo5f13BuMxYJ6TA66cVTlcZNcOxnHSYrfK2AQbSeCBNkJ8FX0iFu0l7hcW9JCv9hrY3MHDcpghursnHoGR4A7LMrS7KCdIJbv4OXbiz+FcV6oqajQ3orZo0/3aj4g7bimdoynCH1ny2tQobpik4pDazAVWMMEHDNBSfydGWpmeNUK+AiLUpuOmKPUFTcPvZjXvsCUroZT32CqgxL6+ti1dAAyVTcFRn4+k9jSzTmfAWcbYaDSlkCkTDkbv49f15Bfvw8m+Bz8fb29OfDba/+38X2KPTPxPyhz8=);lineShape=1;strokeColor=#000000;fillColor=none;" vertex="1" parent="1">
                    <mxGeometry x="-673.0531215389067" y="185.3293167459408" width="115.24542121129048" height="66.9685663524657" as="geometry"/>
                </mxCell>
                <mxCell id="29" value="" style="shape=stencil(lZfbbtswDIafxrcERZ2vu+49CjRdgmVJkaY7vP1oGEotKv6L3jn2x4inn5Im//C2f3rdTcJv18v55+7P4fm6n/y3SeRw2u8uh6s+Tf5x8g8v58vux+X8fnpefr8+zeT89Ov8e/6Hv4tdrZTLbCX8b3njiZcX3xf+eDit+UwudXyh7Lf5UiiFjneVGBkwpdgZSKbE2waZqbg+gkwFGMRKJXcGoVAFMevnWDuDxCQgBnVAeoPsiPO2gSTyJqtqAGJwukJfNk10ATE4ptzXoYa25n0DStLzlWpFPAfLoyowxWj5AHKqGeee16IJ4lks76E/lte2A/lRfwaeI4y3b4maKAaYz4F3qMCUsuUZ5EdI0sCDeIWKWN47oAGSwZ8M4vUUs82ngH7zlKrlK9IkpX5KaD9EIElvFan96UB9herQ/wnkRyg4y1ekeJt/x4xHRBtRa0GChOqAYMtH0HDc5LROEBZYGgoAEnSLblXgAgrG5ILlBTQcUzADKLWW2uCrs7xAQYZRkLCBeORBQ3+VL4MA1EPUP7GV87bFRKoogECuXyEXcmAE+WA1kwrcV4OOwD7mmJuM7m/1mXw/JT7+4q7B7EDfpbOTIOic2654O64EOOc0iWYjdgn2afVNhrcsNaXe55M9fLimjC3e7MQ6CUDVlDdC0EkAUqoy9GJ4B4qsvDmR4jlXh5J9yufBHxRvtYNF4wUdMZ9jquHRXJlP4H1Tu6ajLd6oxsE5vdonbi3azhabC5gTODyAf/kK8SmvDx/3lZfD8bhcd9bf7f1GXy13I//4Hw==);lineShape=1;strokeColor=#000000;fillColor=none;" vertex="1" parent="1">
                    <mxGeometry x="-244.48514934573677" y="275.68765940118817" width="72.91751488874729" height="67.50069733079624" as="geometry"/>
                </mxCell>
                <mxCell id="30" value="" style="shape=stencil(lVfLctswDPwaXTEEwQd4TtP/yEycWlPXzjhOH39faFS5JmRtJjdZxooEdrEEB3l42z+97oYY3i7n0/fdr/H5sh/kyxDjeNzvzuPFngZ5HOTh5XTefTuf3o/P8+/Xpylyevpx+jl94feMY2ptAsXw59+LQml+83WOP4zHm/hAIXTxmSRsh1cS7sKv+LvhnCnWLj5RjtvxtjqnfvtMCgBSKJYOYBVAO0pKMXcAYappG1ACpX6FJFRRiSJxn3MuJLoN0Ei5BxSlVrcBLVDrq6SBBAGa31IznTAElF4WLZIWCNBedy1RALrjsFJey1CptkSLPaBQA0RMSfTMNV3qsAVw2pgKB5iz79XoAYrqqit9B9xBrXpx2BJVICAUDwgIUKi4FSqWnzlK8kQUJA7TvxOH+QLoOQNk6QFCirekjrm4ZLVVJWdk1hEVUV0X/d8AIpKrrqrEi7y21OcbgnEOjVL1SWfcEMq+rJA4azn1xAVgxxPAbekqli1AXYmvfpC0q5KS4h5tLmnzBcSDkiQPaIhp2/Gq46BaK8WVbQiyjc8CtC0nzvWEqNDJlIn7jquFAiCuBtK+SkUWM7wLyGauPQ+ZSYAvpZWRiREHeJDsc4hWBiBvG0ZCXyUbZ5C3cqLU82BvUE9bCn3OHPA4Q+x4hhlfm/H282D/2Z9v03QFDCN73+YIhW0HuEtXYOfY993+MxwaVgTbcMto2PMatfgGusDo7fXAFfpj8gplO99BW4qfqiweTduymhZ0MYL7gqbKfv/IG6M/BC0enWmfvVx8HG8P/28yL+PhMF+Ebv/3Nx97Nd+a5PEv);lineShape=1;strokeColor=#000000;fillColor=none;" vertex="1" parent="1">
                    <mxGeometry x="-237.16014747161557" y="226.36043355034792" width="80.6235044051673" height="33.14389380960108" as="geometry"/>
                </mxCell>
                <mxCell id="31" value="" style="shape=stencil(lZdNctswDIVPoy2GJPgDrtP0HpmJU3vq2hnHaZvbB6qGlghVr/VOpvGBBPBIggM/vO2fXndDcG/Xy/n77tfh+bof+MsQwuG0310OV/0a+HHgh5fzZfftcn4/PU+/X59Gy/Hrx/nn6OH3xDHVOkLBfUwDjir/Gfg6mR8Pp4W5EKfOXMgBcx8pxs7eZ8oVAJVS6ABdoc/bQMgk3AHsKaZtgBOVfklRQ5ZtICbiPkVJgbANpESxdEB2MOicyPkeqOTjNlC0aj1QMiUQtHiSPmhhcg4AQqkPWkei3wYqk/RADVTADLU2fzcgNy1uAeJ6oLREbwFG21XVCgo3AsUCCS+p9GrVEQ/2g/4dxAIJxSAtiQtAMOD6/eCdg6XWLHK0U1QgJq1T8RYoSBuZwgpgVIhEIrYQgoGSLRBQDDqDAQrcoxqDFwt4cGwokI2YNG8IKBSqBRISU1nJNVMEZ6XmJKfVDHgHhWgBQTPUlsRFlhifAjVZQNCNMqt5UeqIp5BgAajv2i6QhVwjKoT6W23SgsR0E+dyy2FtpHIXkO0NMaYB71HOq6CRNu4GPAUDRFgHyatK6z0K1FdUrn2lJTUB/x3wtg5Fz1sQQw42BnWB9J0C5T4GdVFA0DE0qd26jQC7DVZ/PaAuUFq1oTKXFjMxCFpbNnMKBC0cqIP3tnBe+0bUYtkQ9BgBWnWr9cBTTA+MbMw9NjeLhwVbeVdBgLNitXbcb7t2A8zmCSTy1pjO5kidvtV9NvfQ3NyZuLEIa+/YXO5ZDLcO4v9CZdtH4UTe+Sz6p7l+zC+wl8PxOD3glv/bF5sOTa89fvwE);lineShape=1;strokeColor=#000000;fillColor=none;" vertex="1" parent="1">
                    <mxGeometry x="-510.8595422754647" y="199.70602714398615" width="66.96045029036031" height="80.25860248256322" as="geometry"/>
                </mxCell>
                <mxCell id="32" value="" style="shape=stencil(lVfZctswDPwavWJAgKTA5zT9j8zEqTV17YzjXn9fqhpaJhmtx286FiCOxZIc9Olj//K+G4Q/LufT993v6fWyH/TLIDId97vzdMlPgz4P+vR2Ou++nU8/j6/L+/vLjJyffpx+zR7+LHYpEafZSvjv8sVTlP8fvi74w3S8xTOJq/BOiOO2wRgp+cpAArFuG0Qh48pAEykIKShpvYI3SsDAC7k658jkeNtAXfldDEZHAazgEo31CqYkCRhwm0MSSiAkX0pyxScSUFWlaC1+dNt4KRW8wacR4Z3r8AYS7vLN8fhtPFNMXb7AP5dqXPFGEfrnJv4R1j/jfYt3gBG5v008kTz0b6HGhzIWG/UM2uKRf+n4E0hA/Equ869oZMhii4+Ab558bOvjQL88mW/xhma+sPGmXwHwx3fxG2mA8Xf8RCqnlLp5CWC+cv27+U1wfrXGO86UxQTqEjA4MNbhPShQHoCuoAYSztGGFu+gf64lOjdYsUA0DYgUQcOyAHUDiQTuUXymbx2PYYF2kaRO2LjM6OeMyISvV4gG91W1MrHFIERICZ8jrkPyAYpuSEUzr1s9LtKYd9HmMOHg2Fhs9z0jASyaVbPWudxH4H9t6opHsjiTjBs8g4QziSW2eOR/bPftO/6Ngn8k/u64mOsDTn+zqtX1dFDWV9FZ8SNSLe7mXiCpPzVIOIMmIoWM6zP29zJ+7AB+F58f1tP+23Q4LJeF2//t7SB/Wm4W+vwP);lineShape=1;strokeColor=#000000;fillColor=none;" vertex="1" parent="1">
                    <mxGeometry x="-535.7279094826622" y="302.7845386609771" width="52.15539172412559" height="54.42444782739483" as="geometry"/>
                </mxCell>
            </root>
        </mxGraphModel>
    </diagram>
</mxfile>